<svg width="74" height="74" viewBox="0 0 74 74" fill="none" xmlns="http://www.w3.org/2000/svg">
<rect x="0.75" y="0.75" width="71.9606" height="71.9606" rx="9.25" fill="url(#paint0_linear_70_47)" stroke="#373737" stroke-width="1.5" stroke-dasharray="2 2"/>
<path d="M34.2936 36.5632C34.1381 36.5632 34.033 36.5194 33.9797 36.4318C33.9257 36.3442 33.8994 36.1982 33.8994 35.9938V32.1102C33.8994 31.7116 33.8118 31.3729 33.6366 31.0955C33.4617 30.8181 33.2242 30.5855 32.9431 30.4166C32.6431 30.2364 32.3149 30.1081 31.9722 30.037C31.6124 29.9591 31.2453 29.9199 30.8772 29.9202C30.4582 29.9202 30.0494 29.9596 29.6508 30.037C29.2714 30.1072 28.9078 30.2457 28.5777 30.4458C28.2616 30.6407 28.001 30.8984 27.7966 31.2196C27.5922 31.5408 27.4754 31.9444 27.4462 32.4314H29.1106C29.1493 32.0226 29.3201 31.7211 29.6216 31.5262C29.9231 31.3312 30.3078 31.2342 30.775 31.2342C30.9407 31.2342 31.1152 31.2466 31.3006 31.2707C31.4853 31.2955 31.6532 31.3437 31.8051 31.4167C31.9562 31.4897 32.0825 31.594 32.1847 31.7306C32.2869 31.8671 32.338 32.0423 32.338 32.2562C32.338 32.4992 32.2774 32.6817 32.1555 32.8037C32.0335 32.9256 31.8686 33.0154 31.6591 33.0738C31.4495 33.1322 31.2086 33.1738 30.9364 33.1979C30.6641 33.2219 30.3764 33.2636 30.075 33.322C29.7246 33.3606 29.3763 33.4169 29.0311 33.4899C28.6858 33.5629 28.3741 33.6818 28.0967 33.8476C27.8193 34.0133 27.5951 34.2418 27.4251 34.5338C27.2542 34.8258 27.1696 35.2054 27.1696 35.6726C27.1696 36.0427 27.2396 36.3661 27.3813 36.6435C27.5221 36.9209 27.7119 37.1493 27.9507 37.3297C28.1894 37.51 28.4638 37.6465 28.7756 37.7385C29.0873 37.8312 29.4128 37.8772 29.7538 37.8772C30.2012 37.8772 30.6663 37.8042 31.1481 37.6582C31.6051 37.5265 32.0234 37.2861 32.3672 36.9574C32.435 37.2983 32.581 37.5362 32.8052 37.6728C33.0293 37.8093 33.311 37.8772 33.652 37.8772C33.8335 37.8748 34.0143 37.8552 34.1922 37.8188C34.3645 37.7833 34.5351 37.7394 34.7032 37.6874V36.534C34.6156 36.5537 34.5374 36.5632 34.4696 36.5632H34.2936ZM32.235 35.1324C32.235 35.3952 32.1715 35.6171 32.0452 35.7967C31.9189 35.977 31.7605 36.1252 31.5707 36.242C31.3838 36.3574 31.1791 36.4413 30.9648 36.4902C30.7509 36.5391 30.5509 36.5632 30.3662 36.5632C30.2202 36.5632 30.0574 36.5486 29.8771 36.5194C29.7051 36.4927 29.5378 36.4411 29.3807 36.3661C29.232 36.2949 29.1001 36.1929 28.9938 36.0668C28.8849 35.9359 28.8278 35.7697 28.8332 35.5996C28.8332 35.3857 28.8697 35.2032 28.9427 35.0521C29.0157 34.9009 29.1157 34.7798 29.242 34.6871C29.3683 34.5943 29.5143 34.5213 29.68 34.4681C29.8457 34.4148 30.0158 34.3732 30.191 34.344C30.5584 34.2764 30.9287 34.2253 31.3006 34.1907C31.6707 34.1571 31.9817 34.0571 32.235 33.8914V35.1324ZM42.3382 31.0962C42.0423 30.7277 41.665 30.4329 41.2359 30.2348C40.7928 30.0253 40.2745 29.9209 39.681 29.9209C39.1941 29.9209 38.7415 30.0158 38.3232 30.2056C37.9049 30.3954 37.5786 30.7093 37.345 31.1473H37.3158V30.1253H35.739V40.4621H37.4034V36.6953H37.4326C37.5589 36.8997 37.7173 37.0771 37.9071 37.2282C38.0969 37.3786 38.3035 37.5034 38.5276 37.6005C38.7517 37.6976 38.9853 37.7684 39.2284 37.8122C39.4715 37.856 39.7153 37.8779 39.9584 37.8779C40.5132 37.8779 40.995 37.7684 41.4038 37.5494C41.8126 37.3304 42.1506 37.0384 42.4185 36.6734C42.6857 36.3084 42.8857 35.8872 43.0171 35.4105C43.149 34.9301 43.2153 34.4341 43.2142 33.9359C43.2142 33.3811 43.1412 32.8606 42.9952 32.3737C42.8492 31.886 42.6302 31.4612 42.3382 31.0962ZM41.4403 34.8769C41.3673 35.1937 41.2454 35.4755 41.0753 35.7237C40.9052 35.9719 40.6884 36.1741 40.4256 36.3296C40.1628 36.485 39.8416 36.5632 39.462 36.5632C39.1211 36.5632 38.8218 36.4953 38.5641 36.3588C38.3061 36.2226 38.0798 36.0336 37.8998 35.804C37.7068 35.5545 37.5653 35.2691 37.4837 34.9645C37.3887 34.6197 37.342 34.2635 37.345 33.906C37.345 33.0978 37.5224 32.4511 37.8779 31.9642C38.2334 31.4772 38.7612 31.2342 39.462 31.2342C39.8029 31.2342 40.1044 31.3093 40.3672 31.4605C40.63 31.6108 40.849 31.8109 41.0242 32.0591C41.1994 32.3073 41.3308 32.592 41.4184 32.9132C41.506 33.2344 41.5498 33.5658 41.5498 33.906C41.5498 34.2374 41.5133 34.5608 41.4403 34.8769ZM44.6589 27.2484H46.3233V28.8252H44.6589V27.2484ZM44.6589 30.1246H46.3233V37.6728H44.6589V30.1246Z" fill="white"/>
<path d="M18 18V55.96H55.96V18H18ZM19.46 19.46H54.5V48.66H19.46V19.46Z" fill="white"/>
<defs>
<linearGradient id="paint0_linear_70_47" x1="36.7303" y1="0" x2="36.7303" y2="73.4606" gradientUnits="userSpaceOnUse">
<stop stop-color="#0E0E0E"/>
<stop offset="1" stop-color="#212121"/>
</linearGradient>
</defs>
</svg>
