<svg id="Calque_1" data-name="Calque 1" xmlns="http://www.w3.org/2000/svg" viewBox="0 0 16 20"><defs><style>.cls-1{fill:#a4aab2;}</style></defs><path class="cls-1" d="M3.5,20A3.36,3.36,0,0,1,1,19,3.37,3.37,0,0,1,0,16.5V3.5A3.33,3.33,0,0,1,1,1,3.33,3.33,0,0,1,3.5,0H16V15a1.5,1.5,0,0,0,0,3v2ZM2,13.33a2.74,2.74,0,0,1,.73-.25A3.87,3.87,0,0,1,3.5,13H4V2H3.5a1.44,1.44,0,0,0-1.06.44A1.44,1.44,0,0,0,2,3.5ZM6,13h8V2H6Zm-4,.33v0ZM3.5,18h9.33a4.56,4.56,0,0,1-.24-.71,3.29,3.29,0,0,1-.09-.79,3.87,3.87,0,0,1,.08-.77,2.74,2.74,0,0,1,.25-.73H3.5A1.49,1.49,0,0,0,2,16.5,1.45,1.45,0,0,0,3.5,18Z"/></svg>