<svg width="74" height="74" viewBox="0 0 74 74" fill="none" xmlns="http://www.w3.org/2000/svg">
<rect x="0.75" y="0.75" width="71.9606" height="71.9606" rx="9.25" fill="url(#paint0_linear_146_20)" stroke="#373737" stroke-width="1.5" stroke-dasharray="2 2"/>
<path d="M19.7375 17.3125L22.8797 52.5884L36.979 56.5197L51.1178 52.5741L54.2625 17.3125H19.7375ZM47.7347 25.3944L46.6887 37.1459L46.6919 37.2094L46.6875 37.3553V37.3541L45.9444 45.5709L45.8625 46.3009L37 48.7522V48.7525L36.9931 48.7584L28.1459 46.2934L27.5469 39.5H31.8853L32.1931 42.9544L37.0012 44.2575L37 44.26V44.2594L41.8259 42.9378L42.3359 37.3125H32.2475L32.1609 36.3616L31.9637 34.1337L31.8603 32.9375H42.7194L43.1144 28.5625H26.575L26.4884 27.6122L26.2916 25.3837L26.1878 24.1875H47.8381L47.7347 25.3944V25.3944Z" fill="white"/>
<defs>
<linearGradient id="paint0_linear_146_20" x1="36.7303" y1="0" x2="36.7303" y2="73.4606" gradientUnits="userSpaceOnUse">
<stop stop-color="#0E0E0E"/>
<stop offset="1" stop-color="#212121"/>
</linearGradient>
</defs>
</svg>
