<svg width="74" height="74" viewBox="0 0 74 74" fill="none" xmlns="http://www.w3.org/2000/svg">
<rect x="0.75" y="0.75" width="71.9606" height="71.9606" rx="9.25" fill="url(#paint0_linear_27_25)" stroke="#373737" stroke-width="1.5" stroke-dasharray="2 2"/>
<path d="M41.3139 32.1801C38.5629 32.1801 37.1958 33.6161 37.1958 35.684C37.1958 37.0151 37.8614 37.9581 38.7426 38.3897C38.3109 38.7854 37.9516 39.1314 37.6278 39.4729C37.3036 39.815 37.106 40.1762 37.106 40.5722C37.106 41.0581 37.3036 41.5084 37.8973 41.7592C37.268 42.3536 36.9079 42.7849 36.9079 43.5945C36.9079 45.0151 38.1489 45.8428 41.4041 45.8428C44.5335 45.8428 46.3494 44.6744 46.3494 42.6059C46.3494 40.215 44.5156 40.1248 41.4041 39.9264L39.6417 39.8186L40.2354 38.8655C40.5585 38.9554 41.0807 39.0272 41.6567 39.0272C43.9222 39.0272 45.4869 37.8585 45.4869 35.8619C45.4869 35.0346 45.0783 34.4592 44.7549 34.0452L46.3437 33.9194V32.3281H42.9688C42.5555 32.3281 42.0873 32.1801 41.3139 32.1801V32.1801ZM42.1232 42.4262C42.9871 42.4801 43.6707 42.516 43.6707 43.0925C43.6707 44.0624 42.2493 44.1354 41.2068 44.1354C39.9475 44.1354 39.0304 43.919 39.0304 43.1999C39.0304 42.8398 39.264 42.5344 39.4983 42.2469L42.1232 42.4262V42.4262ZM41.4228 37.1391C40.2354 37.1391 39.7499 36.5271 39.7499 35.6462C39.7499 34.4772 40.487 33.9913 41.4763 33.9913C42.5013 33.9913 43.1129 34.5491 43.1129 35.6099C43.1129 36.5457 42.4294 37.1391 41.4228 37.1391ZM49.6402 30.7774C50.6831 30.7774 51.2768 30.1837 51.2768 29.1581C51.2768 28.1339 50.6831 27.5757 49.6402 27.5757C48.6149 27.5757 48.0213 28.1339 48.0213 29.1581C48.0213 30.1834 48.6149 30.7774 49.6402 30.7774ZM51.0156 39.6791V32.3281H47.5178L47.3201 33.7282L48.2786 34.0423C48.459 34.0959 48.4999 34.1944 48.4999 34.392V39.6791C48.4999 39.9494 48.3483 40.0033 48.0964 40.0396L47.0624 40.1654V41.6719H52.4531V40.1654L51.4195 40.0396C51.1489 40.0033 51.0156 39.9677 51.0156 39.6791ZM59.072 39.3054C58.6401 39.4671 58.1262 39.5925 57.622 39.5925C56.6513 39.5925 56.4062 39.1792 56.4062 38.118V33.7656H58.9218V31.9687H56.5363C56.3922 31.9687 56.4062 31.9677 56.4062 31.8419V29.4531H54.6837C54.4861 31.25 53.5312 32.0392 52.0937 32.2196V33.7656H53.5323C53.6764 33.7656 53.5312 33.8925 53.5312 33.9999V38.7117C53.5312 40.7447 54.4131 41.6075 56.5528 41.6075C57.5785 41.6075 58.7475 41.2658 59.5213 40.8884L59.072 39.3054V39.3054ZM24.687 27.9459C24.5744 27.8333 24.4407 27.7439 24.2935 27.683C24.1464 27.622 23.9887 27.5906 23.8294 27.5906C23.6701 27.5906 23.5124 27.622 23.3652 27.683C23.2181 27.7439 23.0844 27.8333 22.9717 27.9459L21.2644 29.6533L23.4303 31.8192C23.6857 31.7323 23.9604 31.7188 24.2231 31.7804C24.4858 31.842 24.7259 31.9761 24.9161 32.1676C25.1063 32.359 25.2388 32.6 25.2986 32.8631C25.3585 33.1262 25.3432 33.4008 25.2545 33.6557L27.3421 35.7433C27.6506 35.636 27.9864 35.6366 28.2945 35.7451C28.6026 35.8536 28.8648 36.0635 29.038 36.3404C29.2112 36.6173 29.2853 36.9448 29.2481 37.2694C29.2109 37.5939 29.0646 37.8961 28.8331 38.1266C28.6992 38.2608 28.5401 38.3672 28.3649 38.4398C28.1898 38.5124 28.0021 38.5497 27.8125 38.5497C27.6229 38.5497 27.4352 38.5124 27.2601 38.4398C27.085 38.3672 26.9259 38.2608 26.7919 38.1266C26.3678 37.7022 26.2083 37.0794 26.4235 36.5569L24.4218 34.6101V39.7338C24.4218 39.8017 24.7435 39.8922 24.8581 40.0065C25.4216 40.57 25.4489 41.4836 24.8851 42.0481C24.7523 42.182 24.5944 42.2883 24.4204 42.3608C24.2464 42.4333 24.0598 42.4707 23.8713 42.4707C23.6827 42.4707 23.4961 42.4333 23.3221 42.3608C23.1481 42.2883 22.9902 42.182 22.8575 42.0481C22.294 41.4836 22.3008 40.5704 22.8646 40.0065C23.0041 39.8674 22.9843 39.7621 23.3437 39.6917V34.5207C22.9843 34.4502 23.0106 34.3456 22.8715 34.2059C22.669 34.0034 22.5313 33.7453 22.476 33.4643C22.4206 33.1834 22.4501 32.8923 22.5606 32.6282L20.4252 30.4924L14.787 36.1307C14.6743 36.2433 14.5848 36.377 14.5238 36.5242C14.4628 36.6714 14.4314 36.8292 14.4314 36.9885C14.4314 37.1478 14.4628 37.3056 14.5238 37.4528C14.5848 37.6 14.6743 37.7337 14.787 37.8463L23.0102 46.0692C23.2378 46.2965 23.5462 46.4241 23.8678 46.4241C24.1895 46.4241 24.4979 46.2965 24.7255 46.0692L32.9103 37.8841C33.1376 37.6564 33.2652 37.3479 33.2652 37.0262C33.2652 36.7045 33.1376 36.396 32.9103 36.1684L24.687 27.9459V27.9459Z" fill="white"/>
<defs>
<linearGradient id="paint0_linear_27_25" x1="36.7303" y1="0" x2="36.7303" y2="73.4606" gradientUnits="userSpaceOnUse">
<stop stop-color="#0E0E0E"/>
<stop offset="1" stop-color="#212121"/>
</linearGradient>
</defs>
</svg>
