<svg width="34" height="33" viewBox="0 0 34 33" fill="none" xmlns="http://www.w3.org/2000/svg">
<path d="M17.4673 0.123779C8.37262 0.123779 0.997803 7.62296 0.997803 16.8744C0.997803 24.2754 5.7168 30.5543 12.2606 32.7693C13.0837 32.9244 13.3859 32.4059 13.3859 31.9635C13.3859 31.564 13.3706 30.2445 13.3635 28.8448C8.78171 29.8581 7.81489 26.8684 7.81489 26.8684C7.06571 24.9323 5.98626 24.4174 5.98626 24.4174C4.49198 23.3778 6.09889 23.3991 6.09889 23.3991C7.75271 23.517 8.62353 25.1253 8.62353 25.1253C10.0924 27.6862 12.4763 26.9458 13.4162 26.5178C13.564 25.4354 13.9908 24.6959 14.4618 24.2779C10.8037 23.8543 6.95826 22.418 6.95826 15.9995C6.95826 14.1707 7.60162 12.6764 8.65517 11.5033C8.48417 11.0812 7.92044 9.37772 8.81471 7.07041C8.81471 7.07041 10.1977 6.62021 13.345 8.78744C14.6587 8.41629 16.0676 8.23017 17.4673 8.22379C18.8669 8.23017 20.2769 8.41629 21.5931 8.78744C24.7365 6.62021 26.1176 7.07041 26.1176 7.07041C27.0141 9.37772 26.4501 11.0812 26.2791 11.5033C27.3351 12.6764 27.9741 14.1707 27.9741 15.9995C27.9741 22.4333 24.1213 23.8499 20.4539 24.2646C21.0446 24.7844 21.571 25.8038 21.571 27.3666C21.571 29.6076 21.5519 31.4115 21.5519 31.9635C21.5519 32.4092 21.8483 32.9316 22.6832 32.7671C29.2234 30.5496 33.9364 24.2729 33.9364 16.8744C33.9364 7.62296 26.5627 0.123779 17.4673 0.123779Z" fill="white"/>
<path d="M7.23597 24.1743C7.19966 24.2579 7.07082 24.2826 6.95344 24.2254C6.83388 24.1707 6.76673 24.0572 6.80549 23.9736C6.84097 23.8878 6.97009 23.8642 7.08938 23.9211C7.20921 23.9761 7.27746 24.0907 7.23597 24.1743Z" fill="white"/>
<path d="M7.90306 24.9312C7.82444 25.0053 7.67076 24.9709 7.56649 24.8537C7.45866 24.7369 7.43846 24.5805 7.51817 24.5053C7.59924 24.4312 7.74829 24.4659 7.85638 24.5828C7.96421 24.701 7.98523 24.8562 7.90306 24.9312Z" fill="white"/>
<path d="M8.55242 25.896C8.45142 25.9674 8.28627 25.9004 8.18418 25.7514C8.08318 25.6023 8.08318 25.4235 8.18637 25.3518C8.28873 25.2802 8.45142 25.3446 8.55488 25.4926C8.65561 25.6439 8.65561 25.823 8.55242 25.896Z" fill="white"/>
<path d="M9.44216 26.828C9.3518 26.9294 9.15936 26.9021 9.0185 26.7639C8.87438 26.6287 8.83425 26.4368 8.92488 26.3355C9.01632 26.2339 9.20986 26.2625 9.3518 26.3996C9.49484 26.5346 9.53852 26.7278 9.44216 26.828Z" fill="white"/>
<path d="M10.6696 27.3691C10.6297 27.5004 10.4444 27.5601 10.2577 27.5043C10.0712 27.4468 9.9492 27.293 9.98687 27.1603C10.0256 27.0281 10.2118 26.9659 10.3999 27.0256C10.586 27.0828 10.7083 27.2355 10.6696 27.3691Z" fill="white"/>
<path d="M12.0174 27.4694C12.022 27.6076 11.8637 27.7223 11.6677 27.7245C11.4706 27.7292 11.3112 27.6173 11.309 27.4813C11.309 27.3417 11.4638 27.2281 11.6609 27.2248C11.8569 27.2209 12.0174 27.3319 12.0174 27.4694Z" fill="white"/>
<path d="M13.2717 27.2521C13.2951 27.3871 13.1589 27.5256 12.9643 27.5622C12.773 27.5981 12.5958 27.5148 12.5715 27.381C12.5477 27.2427 12.6864 27.1041 12.8775 27.0683C13.0724 27.0339 13.2468 27.115 13.2717 27.2521Z" fill="white"/>
</svg>
