<svg width="75" height="74" viewBox="0 0 75 74" fill="none" xmlns="http://www.w3.org/2000/svg">
<rect x="1.43469" y="0.75" width="71.9606" height="71.9606" rx="9.25" fill="url(#paint0_linear_27_19)" stroke="#373737" stroke-width="1.5" stroke-dasharray="2 2"/>
<path d="M19.0592 19.1908H56.181V56.3129H19.0592V19.1908Z" fill="white"/>
<path d="M53.143 47.4592C52.8711 45.7657 51.7668 44.3432 48.4957 43.0168C47.3593 42.4946 46.0925 42.1206 45.715 41.2595C45.581 40.7583 45.5632 40.476 45.648 40.1727C45.8915 39.1882 47.0667 38.8813 47.9981 39.1636C48.598 39.3646 49.1659 39.8269 49.5084 40.5644C51.1103 39.5271 51.107 39.5339 52.2255 38.8211C51.816 38.1862 51.5975 37.8932 51.3294 37.6216C50.3659 36.5454 49.0532 35.9912 46.9537 36.0336L45.86 36.1751C44.8121 36.4399 43.8133 36.9899 43.2277 37.7274C41.4704 39.7214 41.9715 43.211 44.1099 44.6472C46.2165 46.2283 49.3112 46.588 49.7064 48.0665C50.0911 49.8766 48.3762 50.4626 46.6717 50.2544C45.4155 49.9931 44.7169 49.3547 43.9616 48.1937C42.5714 48.9983 42.5714 48.9983 41.1421 49.8203C41.4811 50.5613 41.8372 50.8967 42.4054 51.5387C45.0944 54.2663 51.8234 54.1322 53.0303 50.0038C53.0793 49.8621 53.4043 48.9167 53.143 47.4592V47.4592ZM39.2398 36.2522H35.7677L35.7534 45.229C35.7534 47.1381 35.8522 48.8882 35.5417 49.4247C35.0337 50.4798 33.7174 50.349 33.1175 50.1444C32.5069 49.8443 32.1965 49.4176 31.8368 48.8144C31.738 48.6412 31.6639 48.5072 31.639 48.4968L28.8159 50.2256C29.2853 51.1891 29.9769 52.0253 30.8626 52.5686C32.1858 53.3627 33.9641 53.6062 35.824 53.1792C37.0345 52.8266 38.0789 52.0962 38.6257 50.9845C39.4163 49.527 39.2467 47.7629 39.2395 45.8117C39.2573 42.6283 39.2398 39.4456 39.2398 36.2522V36.2522Z" fill="#323330"/>
<defs>
<linearGradient id="paint0_linear_27_19" x1="37.415" y1="0" x2="37.415" y2="73.4606" gradientUnits="userSpaceOnUse">
<stop stop-color="#0E0E0E"/>
<stop offset="1" stop-color="#212121"/>
</linearGradient>
</defs>
</svg>
