<svg width="33" height="33" viewBox="0 0 33 33" fill="none" xmlns="http://www.w3.org/2000/svg">
<path d="M16.5 0C7.38723 0 0 7.38724 0 16.5C0 25.6128 7.38723 33 16.5 33C25.6127 33 33 25.6128 33 16.5C32.9999 7.38724 25.6126 0 16.5 0ZM12.0977 24.477H8.47501V12.7729H12.0977V24.477ZM10.2691 11.2402C9.08597 11.2402 8.12682 10.2732 8.12682 9.08062C8.12682 7.88786 9.0861 6.92095 10.2691 6.92095C11.4521 6.92095 12.4113 7.88786 12.4113 9.08062C12.4113 10.2733 11.4522 11.2402 10.2691 11.2402ZM25.6739 24.477H22.0688V18.3333C22.0688 16.6483 21.4287 15.7077 20.0963 15.7077C18.6462 15.7077 17.8887 16.6874 17.8887 18.3333V24.477H14.4141V12.7729H17.8887V14.3493C17.8887 14.3493 18.9339 12.4159 21.4156 12.4159C23.8974 12.4159 25.674 13.9313 25.674 17.0662L25.6739 24.477Z" fill="#F5F5F5"/>
</svg>
