<svg width="34" height="33" viewBox="0 0 34 33" fill="none" xmlns="http://www.w3.org/2000/svg">
<path fill-rule="evenodd" clip-rule="evenodd" d="M17.375 0C8.2623 0 0.875 7.3873 0.875 16.5C0.875 25.6127 8.2623 33 17.375 33C26.4877 33 33.875 25.6127 33.875 16.5C33.875 7.3873 26.4877 0 17.375 0ZM12.0585 9.08333L12.0207 9.08333C11.5396 9.08331 11.1197 9.0833 10.7728 9.11163C10.4052 9.14165 10.0324 9.20841 9.67182 9.39215C9.1387 9.66379 8.70546 10.097 8.43382 10.6302C8.25007 10.9908 8.18332 11.3636 8.1533 11.7311C8.12496 12.078 8.12498 12.498 8.125 12.979V12.979L8.125 13.0168V19.9835L8.125 20.0214V20.0214C8.12498 20.5024 8.12496 20.9222 8.1533 21.269C8.18334 21.6365 8.25012 22.009 8.43382 22.3695C8.70517 22.9021 9.13813 23.3361 9.67182 23.608C10.0322 23.7917 10.4047 23.8584 10.7718 23.8884C11.1183 23.9167 11.5376 23.9167 12.0176 23.9167H12.0177L12.0555 23.9167H22.6945L22.7324 23.9167H22.7325C23.2124 23.9167 23.6316 23.9167 23.9778 23.8884C24.345 23.8584 24.7172 23.7916 25.0774 23.608C25.61 23.3367 26.0445 22.9032 26.3164 22.3695C26.4999 22.0093 26.5667 21.6371 26.5967 21.2699C26.625 20.9237 26.625 20.5046 26.625 20.0246V20.0245V19.9866V13.0138V12.976V12.976C26.625 12.4959 26.625 12.0766 26.5967 11.7302C26.5667 11.363 26.5 10.9905 26.3164 10.6302C26.0442 10.096 25.6095 9.66324 25.0774 9.39215C24.717 9.20849 24.3446 9.14168 23.9771 9.11164C23.6304 9.0833 23.2107 9.08331 22.7298 9.08333H22.7297L22.6918 9.08333H12.0585ZM16.243 14.4299L11.8116 11.0835L12.0585 11.0833H22.6918L22.9176 11.0835C22.1383 11.6665 21.2915 12.3073 20.5512 12.8698C19.976 13.307 19.4636 13.6981 19.095 13.9799C18.9107 14.1208 18.7623 14.2344 18.6599 14.3128L18.5422 14.403L18.5116 14.4265L18.5098 14.4279C17.8245 14.9303 17.6931 15.0051 17.5838 15.0334C17.447 15.0688 17.3028 15.0688 17.1659 15.0334C17.057 15.0052 16.9267 14.9311 16.2452 14.4316L16.243 14.4299ZM21.7614 14.4622C22.6673 13.7737 23.7257 12.9735 24.6213 12.3077C24.6248 12.4987 24.625 12.7282 24.625 13.0138V19.9866C24.625 20.5155 24.6242 20.852 24.6034 21.107C24.5835 21.3502 24.5504 21.43 24.5344 21.4616C24.4547 21.6179 24.3268 21.7459 24.1695 21.826C24.1379 21.8421 24.0581 21.8752 23.8148 21.895C23.5599 21.9159 23.2234 21.9167 22.6945 21.9167H12.0555C11.5266 21.9167 11.1899 21.9159 10.9347 21.895C10.6912 21.8751 10.6112 21.842 10.5798 21.826C10.4236 21.7464 10.296 21.6189 10.2158 21.4616C10.1997 21.4299 10.1666 21.3498 10.1467 21.1061C10.1258 20.8506 10.125 20.5134 10.125 19.9835V13.0168C10.125 12.7353 10.1252 12.5082 10.1286 12.3187L15.0278 16.0184C15.0354 16.0244 15.0431 16.0302 15.0508 16.0359L15.1635 16.1187L15.1635 16.1187C15.6702 16.4916 16.1326 16.8319 16.6651 16.9697L16.8802 16.138L16.6651 16.9697C17.1305 17.09 17.6193 17.09 18.0846 16.9697C18.6175 16.8318 19.0807 16.4909 19.5883 16.1173L19.7012 16.0343L19.7187 16.0212L19.1099 15.2279L19.7187 16.0212L19.7188 16.0211L19.7193 16.0208L19.7212 16.0193L19.7289 16.0134L19.7592 15.9902L19.8762 15.9004C19.9781 15.8224 20.126 15.7092 20.3097 15.5688C20.6771 15.2878 21.188 14.8979 21.7614 14.4622Z" fill="white"/>
</svg>
