<svg width="74" height="74" viewBox="0 0 74 74" fill="none" xmlns="http://www.w3.org/2000/svg">
<rect x="0.75" y="0.75" width="71.9606" height="71.9606" rx="9.25" fill="url(#paint0_linear_34_80)" stroke="#373737" stroke-width="1.5" stroke-dasharray="2 2"/>
<path d="M55.0422 31.9426L49.1717 35.5577V28L45.8493 30.154V40.76L43.089 42.536L40.0539 40.76V37.4598L45.8493 33.8069L43.1265 32.0938L37.1187 35.6459L31.0859 31.867L25.0031 35.5577L19.0328 31.9426L13 35.4444V42.4101L15.9602 44.2869V37.3968L19.0328 35.5451L21.8931 37.359V44.3499L25.0281 42.4731L31.0359 46L37.0187 42.4731L43.1265 46L49.2092 42.4731L54.9297 46V42.2211L52.1319 40.76V37.2834L55.0671 35.5703L57.9649 37.3464V40.5584L61 38.7824V35.5073L55.0422 31.9426ZM34.0461 40.76L31.0484 42.4982L28.0507 40.76V37.296L31.0484 35.5577L34.0461 37.296V40.76Z" fill="white"/>
<path d="M54 38V40L55.5057 41L57 40V38L55.5057 37L54 38Z" fill="white"/>
<defs>
<linearGradient id="paint0_linear_34_80" x1="36.7303" y1="0" x2="36.7303" y2="73.4606" gradientUnits="userSpaceOnUse">
<stop stop-color="#0E0E0E"/>
<stop offset="1" stop-color="#212121"/>
</linearGradient>
</defs>
</svg>
