<svg width="74" height="74" viewBox="0 0 74 74" fill="none" xmlns="http://www.w3.org/2000/svg">
<rect x="1.21063" y="0.75" width="71.9606" height="71.9606" rx="9.25" fill="url(#paint0_linear_27_40)" stroke="#373737" stroke-width="1.5" stroke-dasharray="2 2"/>
<path d="M37.3973 23.9166C32.3363 23.9166 29.1743 26.446 27.908 31.5071C29.8053 28.9773 32.0201 28.0287 34.5499 28.6612C35.9943 29.0212 37.0266 30.0685 38.1698 31.2292C40.0302 33.1173 42.1837 35.303 46.8865 35.303C51.9472 35.303 55.1095 32.7733 56.3757 27.7111C54.4782 30.2423 52.2636 31.1909 49.7336 30.5584C48.2894 30.1981 47.2584 29.1511 46.1137 27.9904C44.2544 26.1023 42.1016 23.9166 37.3973 23.9166V23.9166ZM27.908 35.303C22.8473 35.303 19.685 37.8328 18.4188 42.895C20.3161 40.3638 22.5306 39.4151 25.0607 40.0477C26.5051 40.4079 27.5374 41.455 28.6805 42.6157C30.541 44.5037 32.6945 46.6895 37.3973 46.6895C42.458 46.6895 45.6203 44.16 46.8865 39.099C44.9889 41.6288 42.7744 42.5774 40.2443 41.9449C38.8002 41.5849 37.7691 40.5375 36.6245 39.3769C34.7652 37.4888 32.6123 35.303 27.908 35.303Z" fill="white"/>
<defs>
<linearGradient id="paint0_linear_27_40" x1="37.1909" y1="0" x2="37.1909" y2="73.4606" gradientUnits="userSpaceOnUse">
<stop stop-color="#0E0E0E"/>
<stop offset="1" stop-color="#212121"/>
</linearGradient>
</defs>
</svg>
