<svg width="74" height="74" viewBox="0 0 74 74" fill="none" xmlns="http://www.w3.org/2000/svg">
<rect x="0.974121" y="0.75" width="71.9606" height="71.9606" rx="9.25" fill="url(#paint0_linear_27_22)" stroke="#373737" stroke-width="1.5" stroke-dasharray="2 2"/>
<path d="M55.8415 22.7438C55.8415 20.2638 53.8312 18.2536 51.3513 18.2536H22.9678C20.4879 18.2536 18.4777 20.2638 18.4777 22.7438V51.1269C18.4777 53.6072 20.4879 55.6174 22.9678 55.6174H51.3513C53.8312 55.6174 55.8415 53.6072 55.8415 51.1269V22.7438V22.7438ZM35.3803 47.4744C35.3803 48.6034 34.4059 49.3901 33.277 49.3901H25.1685C24.0395 49.3901 23.2223 48.6034 23.2223 47.4744V24.8456C23.2223 23.7164 24.0395 22.7016 25.1685 22.7016H33.277C34.4059 22.7016 35.3803 23.7164 35.3803 24.8456V47.4744ZM51.6899 27.7677V37.2231C51.6899 38.352 50.8193 39.3078 49.6901 39.3078H41.5857C40.4565 39.3078 39.5319 38.3517 39.5319 37.2231V24.7377C39.5319 23.6085 40.4565 22.7016 41.5857 22.7016H49.6901C50.8193 22.7016 51.6899 23.6085 51.6899 24.7377V27.7677Z" fill="white"/>
<defs>
<linearGradient id="paint0_linear_27_22" x1="36.9544" y1="0" x2="36.9544" y2="73.4606" gradientUnits="userSpaceOnUse">
<stop stop-color="#0E0E0E"/>
<stop offset="1" stop-color="#212121"/>
</linearGradient>
</defs>
</svg>
