<svg xmlns="http://www.w3.org/2000/svg" viewBox="0 0 1185.55 801.34"><defs><style>.cls-1,.cls-2,.cls-4{fill:#fff;}.cls-2{font-size:191px;font-family:Dubai-Regular, Dubai;}.cls-3{letter-spacing:-0.02em;}.cls-4{font-size:202px;font-family:Dubai-Bold, Dubai;font-weight:700;}.cls-5{letter-spacing:-0.09em;}.cls-6{letter-spacing:0em;}.cls-7{letter-spacing:-0.02em;}.cls-8{letter-spacing:-0.01em;}</style></defs><g id="Logo"><path class="cls-1" d="M384.65,358.13,157.27,519.23,0,630.62l187.64,59.8L520.71,454.51l-130-92.08ZM76.47,632.85l-32-10.2,22.42-15.88,15.52,21.9ZM105.85,612l-15.51-21.9,23.47-16.65,15.52,21.92Zm31.44-55.18,23.48-16.63,15.53,21.92-23.5,16.63Zm49.25,111.07-32.09-10.22L184,636.61l15.52,21.92Zm-2.3-144.33L207.72,507l15.53,21.93-23.49,16.63ZM223,641.9,207.45,620l23.47-16.63,15.52,21.91Zm8.23-151.55,23.48-16.63,15.54,21.92-23.48,16.63Zm38.73,118.28-15.52-21.9,23.48-16.63L293.39,592Zm8.22-151.54,23.48-16.63,15.54,21.92L293.68,479Zm38.73,118.28-15.52-21.9,23.48-16.63,15.51,21.9Zm8.23-151.54,23.49-16.63,15.52,21.92-23.48,16.63Zm38.72,118.3L348.3,520.21l23.48-16.63,15.51,21.92Zm98.87-102.86,23.06,16.32-28,20-15.51-21.91Zm-28.44,53-23.48,16.64L395.26,487l23.47-16.63ZM387.58,412.5l-15.51-21.93L383,382.83l23.25,16.45Z"/><path class="cls-1" d="M187.64,0,0,59.82l157.28,111.4,245.63,174,136,96.38h0l136-96.38ZM77.12,91,44.61,67.74,76.48,57.58,92.64,69Zm46.95,33.26L100.6,107.58l15.51-21.93,23.48,16.63Zm47,33.25-23.48-16.62,15.52-21.93,23.47,16.63ZM154.25,32.78l32.06-10.22,19.82,14L190.61,58.51ZM218,190.72,194.5,174.09,210,152.17l23.47,16.65Zm-3.9-115.58L229.6,53.23l23.48,16.63L237.56,91.77ZM264.93,224l-23.47-16.63L257,185.45l23.48,16.63ZM261,108.4l15.52-21.91L300,103.12,284.51,125Zm50.84,148.83-23.47-16.62,15.51-21.91,23.48,16.63ZM308,141.66l15.52-21.91L347,136.38l-15.52,21.9Zm50.84,148.83-23.47-16.63L350.87,252l23.48,16.63Zm-3.89-115.57L370.46,153l23.48,16.63-15.52,21.91Zm50.85,148.83-23.48-16.63,15.52-21.9,23.47,16.63ZM401.9,208.17l15.52-21.91,23.47,16.63L425.37,224.8ZM452.74,357l-23.48-16.63,15.52-21.91,23.48,16.64Zm-3.89-115.58,15.52-21.91,23.48,16.63-15.52,21.91Zm50.84,148.85-23.47-16.64,15.51-21.9,23.48,16.62Zm-3.88-115.59,15.52-21.91,23.47,16.63-15.52,21.91ZM537.3,416.93l-14.13-10L538.68,385l21.85,15.48Zm28.94-92.35L542.76,308,558.28,286l23.48,16.63Zm23.47,16.62,15.52-21.91L640.17,344l-23.42,16.6Z"/><path class="cls-1" d="M157.27,197.08,0,85.69V604.77L157.27,493.35ZM46,546.3l-26.85,19V525.4H46Zm0-49.67H19.18V467.86H46Zm0-57.54H19.18V410.32H46Zm0-57.54H19.18V352.78H46ZM46,324H19.18V295.24H46Zm0-57.54H19.18V237.7H46Zm0-57.54H19.18V180.16H46Zm0-57.53H19.18V125.12l26.85,19ZM138.1,481.08l-26.86,19V473H138.1Zm0-36.88H111.24V415.43H138.1Zm0-57.54H111.24V357.89H138.1Zm0-57.54H111.24V300.35H138.1Zm0-57.54H111.24V242.81H138.1Zm0-57.54H111.24V190.33l26.86,19Z"/><text class="cls-2" transform="translate(595.71 542.13)">M<tspan class="cls-3" x="157" y="0">O</tspan><tspan x="286.12" y="0">VIE</tspan></text><text class="cls-4" transform="translate(356.94 688.42)"><tspan class="cls-5">AT</tspan><tspan class="cls-6" x="214.73" y="0">A</tspan><tspan class="cls-7" x="349.67" y="0">B</tspan><tspan class="cls-8" x="469.85" y="0">A</tspan><tspan x="602.77" y="0">SE</tspan></text></g></svg>