<svg xmlns="http://www.w3.org/2000/svg" viewBox="0 0 1151.26 726.02"><defs><style>.cls-1,.cls-2,.cls-6{fill:#fff;}.cls-2,.cls-6{font-size:190px;}.cls-2{font-family:Dubai-Bold, Dubai;font-weight:700;letter-spacing:-0.04em;}.cls-3{letter-spacing:0.05em;}.cls-4{letter-spacing:0.03em;}.cls-5{letter-spacing:0.04em;}.cls-6{font-family:Dubai-Regular, Dubai;}.cls-7{letter-spacing:-0.02em;}</style></defs><g id="Logo"><path class="cls-1" d="M168.45,0,0,53.7l141.19,100L361.7,309.91l122.13,86.52h0L606,309.91ZM69.23,81.64,40.05,60.81l28.61-9.12L83.16,62Zm42.15,29.86L90.31,96.57l13.93-19.68,21.07,14.93Zm42.15,29.86-21.07-14.93,13.93-19.68,21.07,14.93ZM138.48,29.43l28.77-9.17L185,32.86,171.11,52.53Zm57.2,141.78-21.07-14.92,13.93-19.69,21.07,15ZM192.19,67.45l13.93-19.67L227.2,62.71,213.26,82.38Zm45.65,133.62-21.08-14.93,13.93-19.66,21.07,14.93Zm-3.5-103.76,13.93-19.67,21.08,14.93-13.94,19.67ZM280,230.93,258.91,216l13.93-19.67,21.07,14.93Zm-3.49-103.76,13.93-19.67,21.08,14.93L297.57,142.1Zm45.64,133.61-21.07-14.93L315,226.19l21.07,14.93ZM318.64,157l13.93-19.67,21.08,14.92L339.72,172Zm45.64,133.61-21.07-14.93,13.93-19.66L378.21,271Zm-3.49-103.76,13.93-19.67,21.08,14.93-13.93,19.67ZM406.43,320.5l-21.07-14.93,13.93-19.67,21.07,14.93Zm-3.49-103.76,13.94-19.67L438,212,424,231.67Zm45.64,133.63-21.07-14.95,13.93-19.66,21.07,14.93ZM445.1,246.6,459,226.93l21.07,14.92-13.93,19.67Zm37.25,127.68-12.69-9,13.93-19.68,19.61,13.89Zm26-82.9-21.07-14.93,13.93-19.67,21.08,14.93Zm21.08,14.93,13.93-19.67,31.37,22.21-21,14.9Z"/><path class="cls-1" d="M0,76.92v466l141.19-100v-266ZM41.32,490.43,17.22,507.5V471.66h24.1Zm0-44.59H17.22V420h24.1Zm0-51.66H17.22V368.35h24.1Zm0-51.65H17.22V316.7h24.1Zm0-51.66H17.22V265.05h24.1Zm0-51.65H17.22V213.39h24.1Zm0-51.66H17.22V161.74h24.1Zm0-51.65H17.22V112.33l24.1,17.07Zm82.65,296L99.87,449V424.59H124Zm0-33.11H99.87V372.94H124Zm0-51.66H99.87V321.28H124Zm0-51.65H99.87V269.63H124Zm0-51.66H99.87V218H124Zm0-51.65H99.87V170.86L124,187.94Z"/><path class="cls-1" d="M350.75,325.36l-5.44-3.86L141.19,466.12,0,566.12l168.44,53.69L467.45,408ZM68.65,568.12,39.89,559,60,544.71,74,564.37ZM95,549.44,81.1,529.78l21.07-14.94,13.93,19.68Zm28.22-49.53L144.32,485l14,19.68-21.09,14.93Zm44.21,99.71-28.8-9.18,26.5-18.94,13.92,19.68ZM165.4,470.05l21.07-14.93,13.95,19.68-21.09,14.93Zm34.76,106.2-13.93-19.68,21.08-14.93,13.92,19.67Zm7.39-136.06,21.07-14.92L242.57,445l-21.08,14.93Zm34.76,106.19-13.93-19.66,21.08-14.93,13.93,19.66Zm7.39-136,21.07-14.93,14,19.68L263.64,430Zm34.76,106.18-13.93-19.66,21.07-14.93,13.94,19.66Zm7.39-136,21.09-14.93,13.93,19.68-21.08,14.93Zm34.76,106.2L312.68,467l21.07-14.92,13.93,19.68Zm7.4-136,9.82-7,20.87,14.77-16.76,11.87Zm34.75,106.2-13.93-19.68,21.07-14.93,13.93,19.66ZM397,407.29l18.39-13L436.06,409,410.91,427Z"/><text class="cls-2" transform="translate(306.72 619.81)">AT<tspan class="cls-3" x="220.59" y="0">A</tspan><tspan class="cls-4" x="356.82" y="0">B</tspan><tspan class="cls-5" x="479.18" y="0">A</tspan><tspan class="cls-3" x="613.51" y="0">SE</tspan></text><text class="cls-6" transform="translate(588.68 462.33)">M<tspan class="cls-7" x="156.18" y="0">O</tspan><tspan x="284.62" y="0">VIE</tspan></text></g></svg>