<svg width="74" height="74" viewBox="0 0 74 74" fill="none" xmlns="http://www.w3.org/2000/svg">
<rect x="1.05298" y="0.75" width="71.9606" height="71.9606" rx="9.25" fill="url(#paint0_linear_27_28)" stroke="#373737" stroke-width="1.5" stroke-dasharray="2 2"/>
<path d="M30.1201 56.2105C33.6489 56.2105 36.4957 53.3637 36.4957 49.8349V43.4593H30.1201C26.5913 43.4593 23.7445 46.3061 23.7445 49.8349C23.7445 53.3637 26.5913 56.2105 30.1201 56.2105Z" fill="white"/>
<path d="M23.7445 37.0838C23.7445 33.555 26.5913 30.7082 30.1201 30.7082H36.4957V43.4593H30.1201C26.5913 43.4593 23.7445 40.6126 23.7445 37.0838Z" fill="white"/>
<path d="M23.7445 24.3326C23.7445 20.8038 26.5913 17.957 30.1201 17.957H36.4957V30.7082H30.1201C26.5913 30.7082 23.7445 27.8614 23.7445 24.3326Z" fill="white"/>
<path d="M36.4956 17.957H42.8712C46.4 17.957 49.2468 20.8038 49.2468 24.3326C49.2468 27.8614 46.4 30.7082 42.8712 30.7082H36.4956V17.957Z" fill="white"/>
<path d="M49.2468 37.0838C49.2468 40.6126 46.4 43.4593 42.8712 43.4593C39.3424 43.4593 36.4956 40.6126 36.4956 37.0838C36.4956 33.555 39.3424 30.7082 42.8712 30.7082C46.4 30.7082 49.2468 33.555 49.2468 37.0838Z" fill="white"/>
<defs>
<linearGradient id="paint0_linear_27_28" x1="37.0333" y1="0" x2="37.0333" y2="73.4606" gradientUnits="userSpaceOnUse">
<stop stop-color="#0E0E0E"/>
<stop offset="1" stop-color="#212121"/>
</linearGradient>
</defs>
</svg>
