<svg width="74" height="74" viewBox="0 0 74 74" fill="none" xmlns="http://www.w3.org/2000/svg">
<rect x="0.75" y="0.75" width="71.9606" height="71.9606" rx="9.25" fill="url(#paint0_linear_27_34)" stroke="#373737" stroke-width="1.5" stroke-dasharray="2 2"/>
<path d="M12.7816 47.3352H14.3863V40.9981L16.8707 46.5227C17.1637 47.1914 17.5648 47.4277 18.352 47.4277C19.1391 47.4277 19.525 47.1914 19.818 46.5227L22.3023 40.9981V47.3352H23.907V41.0086C23.907 40.3914 23.6602 40.0926 23.1508 39.9387C21.9316 39.5582 21.1137 39.8875 20.7434 40.7106L18.3055 46.1629L15.9449 40.7102C15.5898 39.8875 14.7566 39.5582 13.5375 39.9383C13.0281 40.0926 12.7812 40.391 12.7812 41.0082V47.3352H12.7816ZM25.2418 42.1766H26.8461V45.668C26.8312 45.8574 26.907 46.3027 27.7859 46.3168C28.2344 46.3238 31.2477 46.3168 31.2758 46.3168V42.1594H32.884C32.8914 42.1594 32.8824 47.8289 32.8824 47.8523C32.891 49.2508 31.1477 49.5543 30.3437 49.5777H25.2766V48.4981C25.2852 48.4981 30.3402 48.4992 30.3527 48.4977C31.3859 48.3887 31.2637 47.8754 31.2633 47.7027V47.2816H27.8527C26.266 47.2672 25.2551 46.5746 25.2422 45.7777C25.2414 45.7047 25.277 42.2117 25.2418 42.1766V42.1766Z" fill="white"/>
<path d="M34.1211 47.3352H38.7352C39.2754 47.3352 39.8004 47.2223 40.2168 47.027C40.9109 46.7082 41.2504 46.2762 41.2504 45.7098V44.5371C41.2504 44.0742 40.8648 43.6418 40.1086 43.3543C39.7074 43.1996 39.2133 43.118 38.7348 43.118H36.7902C36.1422 43.118 35.8336 42.9227 35.7566 42.4906C35.7414 42.4391 35.7414 42.3981 35.7414 42.3465V41.616C35.7414 41.575 35.7414 41.5336 35.7566 41.4824C35.8336 41.1531 36.0035 41.0606 36.5746 41.009L36.7289 40.9988H41.3121V39.9293H36.8063C36.1582 39.9293 35.8188 39.9703 35.5102 40.0629C34.5535 40.3613 34.1363 40.8344 34.1363 41.6574V42.5934C34.1363 43.3137 34.9547 43.9309 36.3277 44.075C36.4824 44.0848 36.6363 44.0957 36.7906 44.0957H38.4574C38.5191 44.0957 38.5809 44.0957 38.6273 44.1055C39.1367 44.1465 39.3523 44.2395 39.507 44.4242C39.5467 44.4608 39.5781 44.5054 39.5993 44.555C39.6205 44.6046 39.631 44.6582 39.6301 44.7121V45.6485C39.6301 45.7613 39.5531 45.9055 39.3988 46.0289C39.2602 46.1524 39.0285 46.2348 38.7199 46.2555L38.55 46.2656H34.1211V47.3352ZM51.2621 45.4735C51.2621 46.5738 52.0801 47.191 53.7309 47.3149C53.8852 47.325 54.0395 47.3352 54.1938 47.3352H58.3758V46.2656H54.1633C53.2219 46.2656 52.8672 46.0289 52.8672 45.4629V39.9285H51.2625V45.4735H51.2621ZM42.2746 45.5289V41.7145C42.2746 40.7457 42.9551 40.1578 44.3004 39.9723C44.4437 39.9517 44.5884 39.9414 44.7332 39.9414H47.7797C47.9344 39.9414 48.0734 39.9516 48.2277 39.9723C49.573 40.1578 50.2539 40.7453 50.2539 41.7145V45.5289C50.2539 46.3156 49.9648 46.736 49.2988 47.0102L50.8801 48.4371H49.0164L47.7375 47.2824L46.45 47.3641H44.7332C44.4143 47.362 44.0971 47.317 43.7902 47.2301C42.7695 46.952 42.2746 46.4156 42.2746 45.5289V45.5289ZM44.0066 45.4363C44.0066 45.4879 44.0219 45.5399 44.0375 45.6016C44.1301 46.0449 44.548 46.2922 45.1816 46.2922H46.6395L45.3004 45.0832H47.1641L48.3316 46.1379C48.5473 46.0227 48.6887 45.8477 48.7383 45.6223C48.7535 45.5707 48.7535 45.5192 48.7535 45.4676V41.8082C48.7535 41.7672 48.7535 41.7152 48.7383 41.6637C48.6453 41.2512 48.2277 41.0145 47.6094 41.0145H45.1813C44.4703 41.0145 44.0062 41.3238 44.0062 41.8082V45.4363H44.0066Z" fill="white"/>
<path d="M59.7875 38.1531C58.8012 38.1262 58.0477 38.218 57.4032 38.4895C57.2199 38.5668 56.9282 38.5687 56.8985 38.798C56.9989 38.9039 57.0145 39.0613 57.0946 39.191C57.2485 39.4398 57.5082 39.7734 57.7399 39.948C57.9926 40.1391 58.2535 40.3437 58.5254 40.5094C59.0078 40.8039 59.5469 40.9719 60.0121 41.2664C60.286 41.4406 60.5578 41.6594 60.8254 41.8559C60.9578 41.9523 61.0461 42.1035 61.2184 42.1641V42.1363C61.1282 42.0215 61.1047 41.8637 61.0219 41.7434L60.6571 41.3785C60.3004 40.9051 59.8481 40.4898 59.3664 40.1445C58.9828 39.8691 58.1242 39.4969 57.9641 39.0504L57.936 39.0227C58.2078 38.9918 58.5266 38.8934 58.7774 38.8262C59.1992 38.7129 59.5762 38.7422 60.0117 38.6297L60.6008 38.4609V38.3492C60.3809 38.1234 60.2235 37.8242 59.9836 37.6199C59.3559 37.0852 58.6699 36.5508 57.9641 36.1047C57.5727 35.8578 57.0887 35.6973 56.6735 35.4879C56.5344 35.4172 56.2891 35.3809 56.1965 35.2633C55.9782 34.9855 55.8598 34.6336 55.6914 34.3098C55.3319 33.6102 54.9951 32.8991 54.6817 32.1777C54.4692 31.6914 54.3301 31.2117 54.0649 30.7754C52.791 28.6812 51.4199 27.4172 49.2961 26.175C48.8442 25.9105 48.3 25.8066 47.7254 25.6703L46.7996 25.6141C46.6117 25.5355 46.4157 25.3051 46.2387 25.1934C45.5348 24.7488 43.7301 23.782 43.209 25.0535C42.8801 25.8559 43.7012 26.6387 43.9946 27.0453C44.2004 27.3305 44.4645 27.65 44.6117 27.9707C44.7086 28.1816 44.725 28.393 44.8082 28.616C45.0117 29.1652 45.1895 29.7633 45.4531 30.2707C45.5864 30.5277 45.7336 30.7984 45.902 31.0281C46.0051 31.1687 46.1824 31.2312 46.2102 31.4488C46.0371 31.691 46.027 32.0676 45.9297 32.3742C45.4914 33.7566 45.6567 35.475 46.2946 36.498C46.4903 36.8125 46.9512 37.4859 47.5848 37.2273C48.1391 37.0016 48.0157 36.302 48.1742 35.6844C48.2102 35.5449 48.1879 35.4418 48.2582 35.348V35.3762L48.7633 36.3859C49.1371 36.9879 49.8 37.6164 50.3621 38.041C50.6535 38.2609 50.8832 38.6418 51.2598 38.7703V38.7418H51.2321C51.1586 38.6281 51.0449 38.5813 50.9512 38.4895C50.7317 38.2742 50.4875 38.007 50.3063 37.7602C49.7949 37.0664 49.3434 36.3066 48.9317 35.516C48.7352 35.1387 48.5645 34.7223 48.3989 34.3379C48.3348 34.1898 48.3356 33.9656 48.2028 33.8895C48.0207 34.1707 47.7539 34.3984 47.6133 34.7309C47.3891 35.2621 47.3602 35.9102 47.277 36.582L47.2207 36.6098C46.8297 36.5156 46.6926 36.1133 46.5473 35.7684C46.1801 34.8961 46.1117 33.491 46.4352 32.4867C46.5188 32.2266 46.8965 31.4082 46.7434 31.168C46.6703 30.9285 46.4293 30.7902 46.2949 30.6066C46.1186 30.361 45.9682 30.0977 45.8461 29.8211C45.5453 29.141 45.4051 28.3773 45.0891 27.6895C44.9375 27.3605 44.6821 27.0281 44.4719 26.7359C44.2395 26.4117 43.9789 26.1734 43.7985 25.782C43.7344 25.643 43.6473 25.4199 43.7422 25.277C43.7723 25.1805 43.8157 25.1402 43.911 25.1086C44.0735 24.9832 44.5266 25.1504 44.6961 25.2207C45.1461 25.4078 45.5215 25.5855 45.9028 25.8379C46.0856 25.9594 46.2703 26.1937 46.4918 26.2586H46.7442C47.1391 26.3492 47.5817 26.2863 47.9504 26.3984C48.6028 26.5969 49.1871 26.9051 49.7176 27.2402C51.3344 28.2613 52.6559 29.7145 53.5606 31.448C53.7059 31.7273 53.7692 31.9934 53.8969 32.2895C54.1555 32.8863 54.4813 33.5008 54.7383 34.0848C54.9949 34.6672 55.2453 35.2551 55.6082 35.7398C55.7989 35.9945 56.5356 36.1312 56.8703 36.2727C57.1051 36.3719 57.4895 36.4754 57.7117 36.609C58.1364 36.8652 58.5481 37.1703 58.9461 37.4508C59.1449 37.5922 59.7571 37.8996 59.7875 38.1531V38.1531ZM47.2489 27.466C47.0788 27.4632 46.9091 27.4821 46.7438 27.5223V27.55H46.7719C46.8699 27.752 47.043 27.8816 47.1645 28.0551L47.4453 28.6441L47.4731 28.6164C47.6469 28.4941 47.7262 28.2984 47.7254 27.9992C47.6555 27.9258 47.6453 27.834 47.5852 27.7469C47.5055 27.6297 47.35 27.5641 47.2489 27.466V27.466Z" fill="white"/>
<defs>
<linearGradient id="paint0_linear_27_34" x1="36.7303" y1="0" x2="36.7303" y2="73.4606" gradientUnits="userSpaceOnUse">
<stop stop-color="#0E0E0E"/>
<stop offset="1" stop-color="#212121"/>
</linearGradient>
</defs>
</svg>
