<svg width="75" height="74" viewBox="0 0 75 74" fill="none" xmlns="http://www.w3.org/2000/svg">
<rect x="1.59241" y="0.75" width="71.9606" height="71.9606" rx="9.25" fill="url(#paint0_linear_27_31)" stroke="#373737" stroke-width="1.5" stroke-dasharray="2 2"/>
<path d="M37.8208 27.1022C27.8156 27.1022 19.7041 31.3407 19.7041 36.569C19.7041 41.7973 27.8156 46.0358 37.8208 46.0358C47.826 46.0358 55.9375 41.7973 55.9375 36.569C55.9375 31.3407 47.826 27.1022 37.8208 27.1022ZM33.1067 38.4134C32.6744 38.8305 32.1943 39.0026 31.6656 39.1799C31.1368 39.3576 30.464 39.3209 29.6458 39.3209H27.7916L27.2777 42.3786H25.1127L27.0446 31.9825H31.208C32.4606 31.9825 33.3742 32.354 33.9486 33.0319C34.523 33.7098 34.6956 34.672 34.4667 35.8869C34.3721 36.3874 34.2128 36.8528 33.9881 37.2674C33.7551 37.6952 33.4576 38.082 33.1067 38.4134V38.4134ZM39.4263 39.3209L40.2806 34.9118C40.3779 34.3956 40.3423 34.0122 40.1735 33.8248C40.0045 33.637 39.6451 33.5114 39.0956 33.5114H37.3787L36.2723 39.3209H34.1242L36.0561 29.2306H38.2042L37.6906 31.9825H39.6042C40.8084 31.9825 41.6387 32.2317 42.0957 32.6647C42.5527 33.0977 42.6897 33.6908 42.507 34.6607L41.6082 39.3209H39.4263ZM51.3646 35.9031C51.2703 36.4036 51.1108 36.861 50.8863 37.2753C50.6615 37.6903 50.3679 38.0697 50.0053 38.4134C49.5729 38.8305 49.0925 39.0026 48.5641 39.1799C48.0357 39.3576 47.3622 39.3209 46.5441 39.3209H44.6898L44.1762 42.3786H42.0112L43.9428 31.9825H48.1065C49.3591 31.9825 50.2727 32.354 50.8468 33.0319C51.4206 33.7098 51.5935 34.6886 51.3646 35.9031V35.9031ZM47.286 33.5114H45.803L44.9944 37.7921H46.3116C47.184 37.7921 47.8346 37.7034 48.2616 37.364C48.6892 37.0252 48.9772 36.4993 49.1269 35.7065C49.2704 34.9448 49.2052 34.3507 48.9312 34.0376C48.6569 33.7245 48.1086 33.5114 47.286 33.5114V33.5114ZM30.3878 33.5114H28.9045L28.0958 37.7921H29.4128C30.2855 37.7921 30.9358 37.7034 31.3631 37.364C31.7904 37.0252 32.0786 36.4993 32.2281 35.7065C32.3716 34.9448 32.3064 34.3507 32.0324 34.0376C31.7584 33.7245 31.2104 33.5114 30.3878 33.5114Z" fill="white"/>
<defs>
<linearGradient id="paint0_linear_27_31" x1="37.5727" y1="0" x2="37.5727" y2="73.4606" gradientUnits="userSpaceOnUse">
<stop stop-color="#0E0E0E"/>
<stop offset="1" stop-color="#212121"/>
</linearGradient>
</defs>
</svg>
