<svg width="74" height="74" viewBox="0 0 74 74" fill="none" xmlns="http://www.w3.org/2000/svg">
<rect x="0.75" y="0.75" width="71.9606" height="71.9606" rx="9.25" fill="url(#paint0_linear_34_66)" stroke="#373737" stroke-width="1.5" stroke-dasharray="2 2"/>
<path d="M36.9784 40.359C38.8455 40.359 40.359 38.8455 40.359 36.9784C40.359 35.1114 38.8455 33.5979 36.9784 33.5979C35.1114 33.5979 33.5979 35.1114 33.5979 36.9784C33.5979 38.8455 35.1114 40.359 36.9784 40.359Z" fill="white"/>
<path d="M49.8186 31.4035C49.1662 31.1663 48.4841 30.9291 47.7724 30.7215C47.9504 30.0098 48.0986 29.2981 48.2173 28.6161C48.84 24.7018 48.1579 21.9439 46.2601 20.8764C45.6967 20.5502 45.074 20.4019 44.3623 20.4019C42.2865 20.4019 39.6473 21.9439 36.9785 24.5238C34.3096 21.9439 31.6704 20.4019 29.5947 20.4019C28.883 20.4019 28.2602 20.5502 27.6968 20.8764C25.799 21.9736 25.1169 24.7314 25.7397 28.6161C25.8583 29.2981 26.0065 30.0098 26.1845 30.7215C25.4728 30.9291 24.7907 31.1366 24.1383 31.4035C20.4316 32.8269 18.4152 34.7841 18.4152 36.9784C18.4152 39.1728 20.4613 41.13 24.1383 42.5534C24.7907 42.7906 25.4728 43.0278 26.1845 43.2354C26.0065 43.9471 25.8583 44.6588 25.7397 45.3408C25.1169 49.2551 25.799 52.0129 27.6968 53.0805C28.2602 53.4067 28.883 53.5549 29.5947 53.5549C31.7001 53.5549 34.3393 52.0129 36.9785 49.433C39.6473 52.0129 42.2865 53.5549 44.3623 53.5549C45.074 53.5549 45.6967 53.4067 46.2601 53.0805C48.1579 51.9833 48.84 49.2255 48.2173 45.3408C48.0986 44.6588 47.9504 43.9471 47.7724 43.2354C48.4841 43.0278 49.1662 42.8202 49.8186 42.5534C53.5253 41.13 55.5418 39.1728 55.5418 36.9784C55.5418 34.7841 53.5253 32.8269 49.8186 31.4035V31.4035ZM45.4298 22.3591C46.6456 23.0708 47.0608 25.2652 46.5566 28.3788C46.4677 29.0016 46.3194 29.6539 46.1415 30.336C44.5995 29.9801 42.9685 29.7429 41.2486 29.5946C40.2404 28.1712 39.2025 26.8961 38.1646 25.7396C40.359 23.5749 42.583 22.0922 44.3919 22.0922C44.7774 22.0922 45.1333 22.1812 45.4298 22.3591V22.3591ZM42.1086 39.9438C41.5748 40.8927 40.9521 41.8417 40.2997 42.7906C39.2025 42.8795 38.1053 42.9092 36.9785 42.9092C35.822 42.9092 34.7248 42.8795 33.6572 42.7906C33.0048 41.8417 32.4118 40.8927 31.878 39.9438C31.3146 38.9652 30.7808 37.957 30.3063 36.9784C30.7808 35.9999 31.3146 34.9916 31.878 34.0131C32.4118 33.0641 33.0345 32.1152 33.6869 31.1663C34.7841 31.0773 35.8813 31.0477 37.0081 31.0477C38.1646 31.0477 39.2618 31.0773 40.3293 31.1663C40.9817 32.1152 41.5748 33.0641 42.1086 34.0131C42.672 34.9916 43.2058 35.9999 43.6802 36.9784C43.1761 37.957 42.672 38.9356 42.1086 39.9438ZM44.5698 38.9652C45.0146 40.0031 45.3705 41.0114 45.6967 42.0196C44.6885 42.2568 43.6209 42.4347 42.4941 42.583C42.8499 42.0196 43.2354 41.4265 43.5616 40.8038C43.9175 40.1811 44.2436 39.5583 44.5698 38.9652ZM36.9785 47.0014C36.2668 46.2304 35.5847 45.4001 34.9323 44.5402C35.6144 44.5698 36.2964 44.5995 36.9785 44.5995C37.6605 44.5995 38.3425 44.5698 39.0246 44.5402C38.3722 45.4001 37.6901 46.2304 36.9785 47.0014ZM31.4628 42.5534C30.336 42.4051 29.2685 42.2272 28.2602 41.9899C28.5864 41.0114 28.9423 39.9735 29.3871 38.9356C29.7133 39.5287 30.0395 40.1514 30.3953 40.7445C30.7512 41.3969 31.107 41.9603 31.4628 42.5534V42.5534ZM29.3871 34.9916C28.9423 33.9537 28.5864 32.9455 28.2602 31.9373C29.2685 31.7001 30.336 31.5221 31.4628 31.3739C31.107 31.9373 30.7215 32.5304 30.3953 33.1531C30.0395 33.7758 29.7133 34.3986 29.3871 34.9916V34.9916ZM36.9785 26.9554C37.6901 27.7264 38.3722 28.5567 39.0246 29.4167C38.3425 29.3871 37.6605 29.3574 36.9785 29.3574C36.2964 29.3574 35.6144 29.3871 34.9323 29.4167C35.5847 28.5567 36.2668 27.7264 36.9785 26.9554ZM43.5616 33.1827L42.4941 31.4035C43.6209 31.5518 44.6885 31.7297 45.6967 31.9669C45.3705 32.9455 45.0146 33.9834 44.5698 35.0213C44.2436 34.3986 43.9175 33.7758 43.5616 33.1827ZM27.4003 28.3788C26.8962 25.2652 27.3113 23.0708 28.5271 22.3591C28.8237 22.1812 29.1795 22.0922 29.565 22.0922C31.3442 22.0922 33.5683 23.5453 35.7923 25.7396C34.7544 26.8665 33.7165 28.1712 32.7083 29.5946C30.9884 29.7429 29.3574 30.0098 27.8154 30.336C27.6375 29.6539 27.5189 29.0016 27.4003 28.3788V28.3788ZM20.0758 36.9784C20.0758 35.5847 21.766 34.102 24.7314 33.0048C25.3245 32.7676 25.9769 32.56 26.6293 32.3821C27.1037 33.8648 27.6968 35.4364 28.4085 37.0081C27.6968 38.5797 27.0741 40.1217 26.6293 41.6044C22.537 40.4183 20.0758 38.6391 20.0758 36.9784ZM28.5271 51.5978C27.3113 50.8861 26.8962 48.6917 27.4003 45.578C27.4892 44.9553 27.6375 44.3029 27.8154 43.6209C29.3574 43.9767 30.9884 44.214 32.7083 44.3622C33.7165 45.7856 34.7544 47.0607 35.7923 48.2172C33.5979 50.382 31.3739 51.8647 29.565 51.8647C29.1795 51.8647 28.8237 51.7757 28.5271 51.5978ZM46.5566 45.578C47.0608 48.6917 46.6456 50.8861 45.4298 51.5978C45.1333 51.7757 44.7774 51.8647 44.3919 51.8647C42.6127 51.8647 40.3886 50.4116 38.1646 48.2172C39.2025 47.0904 40.2404 45.7856 41.2486 44.3622C42.9685 44.214 44.5995 43.9471 46.1415 43.6209C46.3194 44.3029 46.438 44.9553 46.5566 45.578V45.578ZM49.2255 40.9521C48.6324 41.1893 47.98 41.3969 47.3276 41.5748C46.8532 40.0921 46.2601 38.5204 45.5484 36.9488C46.2601 35.3771 46.8828 33.8351 47.3276 32.3524C51.4199 33.5386 53.8811 35.3178 53.8811 36.9784C53.8811 38.3722 52.1612 39.8549 49.2255 40.9521Z" fill="white"/>
<defs>
<linearGradient id="paint0_linear_34_66" x1="36.7303" y1="0" x2="36.7303" y2="73.4606" gradientUnits="userSpaceOnUse">
<stop stop-color="#0E0E0E"/>
<stop offset="1" stop-color="#212121"/>
</linearGradient>
</defs>
</svg>
